<?xml version="1.0" encoding="UTF-8"?>
<!--Generator: Apple Native CoreSVG 175.5-->
<!DOCTYPE svg
PUBLIC "-//W3C//DTD SVG 1.1//EN"
       "http://www.w3.org/Graphics/SVG/1.1/DTD/svg11.dtd">
<svg version="1.1" xmlns="http://www.w3.org/2000/svg" xmlns:xlink="http://www.w3.org/1999/xlink" width="239.062" height="239.18">
 <g>
  <rect height="239.18" opacity="0" width="239.062" x="0" y="0"/>
  <path d="M119.531 239.062C184.922 239.062 239.062 184.805 239.062 119.531C239.062 54.1406 184.805 0 119.414 0C54.1406 0 0 54.1406 0 119.531C0 184.805 54.2578 239.062 119.531 239.062ZM119.414 221.25C92.5781 221.25 65.3906 210.234 47.4609 191.133C60.1172 171.211 87.6562 159.492 119.414 159.492C150.938 159.492 178.711 170.977 191.484 191.133C173.438 210.234 146.367 221.25 119.414 221.25ZM119.414 139.57C96.9141 139.336 79.2188 120.586 79.2188 95.3906C79.1016 71.7188 97.0312 52.0312 119.414 52.0312C141.914 52.0312 159.609 71.7188 159.609 95.3906C159.609 120.586 142.031 139.805 119.414 139.57Z" fill="#ffffff" fill-opacity="0.85"/>
 </g>
</svg>
